<svg xmlns="http://www.w3.org/2000/svg" xmlns:xlink="http://www.w3.org/1999/xlink" xmlns:svgjs="http://svgjs.dev/svgjs" version="1.1" width="2000" height="257" viewBox="0 0 2000 257"><g transform="matrix(1,0,0,1,-1.2121212121212466,-0.49925682519156567)"><svg xmlns="http://www.w3.org/2000/svg" xmlns:xlink="http://www.w3.org/1999/xlink" viewBox="0 0 396 51" data-background-color="#ffffff" preserveAspectRatio="xMidYMid meet" height="257" width="2000"><g id="tight-bounds" transform="matrix(1,0,0,1,0.2400000000000091,0.09907431161389013)"><svg viewBox="0 0 395.52 50.8018513767722" height="50.8018513767722" width="395.52"><g><svg viewBox="0 0 462.96151088518525 59.46425432128612" height="50.8018513767722" width="395.52"><g transform="matrix(1,0,0,1,0,8.218286957572833)"><svg viewBox="0 0 395.52 43.027680406140455" height="43.027680406140455" width="395.52"><g id="textblocktransform"><svg viewBox="0 0 395.52 43.027680406140455" height="43.027680406140455" width="395.52" id="textblock"><g><svg viewBox="0 0 395.52 43.027680406140455" height="43.027680406140455" width="395.52"><g transform="matrix(1,0,0,1,0,0)"><svg width="395.52" viewBox="2.27 -42.19 403.93 43.949999999999996" height="43.027680406140455" data-palette-color="#454545"><path d="M30.98-40.43L30.98-19.46 29.22-22.36 29.22-40.43 30.98-40.43ZM34.5-40.43L34.5-13.7 32.74-16.65 32.74-40.43 34.5-40.43ZM38.01-40.43L38.01-7.86 36.25-10.84 36.25-40.43 38.01-40.43ZM12.82 0L12.82-20.97 14.58-18.07 14.58 0 12.82 0ZM9.3 0L9.3-26.73 11.06-23.78 11.06 0 9.3 0ZM5.79 0L5.79-32.57 7.54-29.59 7.54 0 5.79 0ZM31.25 0L6.4-40.43 8.45-40.43 33.3 0 31.25 0ZM35.35 0L10.55-40.43 12.62-40.43 37.45 0 35.35 0ZM39.45 0L14.67-40.43 16.72-40.43 39.77-2.86 39.77-40.43 41.53-40.43 41.53 0Q41.53 0 39.45 0L39.45 0ZM27.12 0L4.03-37.57 4.03 0 2.27 0 2.27-40.43Q2.27-40.43 4.37-40.43L4.37-40.43 29.15 0 27.12 0ZM56.71 0L56.71-40.43 58.47-40.43 58.47 0 56.71 0ZM53.2 0L53.2-40.43 54.95-40.43 54.95 0 53.2 0ZM49.68 0L49.68-40.43 51.44-40.43 51.44 0 49.68 0ZM46.16 0L46.16-40.43 47.92-40.43 47.92 0 46.16 0ZM88.69-38.67L62.32-38.67 62.32-40.43 88.69-40.43 88.69-38.67ZM88.69-35.16L62.32-35.16 62.32-36.91 88.69-36.91 88.69-35.16ZM69.36-31.64L62.32-31.64 62.32-33.4 88.69-33.4 88.69-31.64 81.66-31.64 81.66 0 79.9 0 79.9-31.64 78.14-31.64 78.14 0 76.39 0 76.39-31.64 74.63-31.64 74.63 0 72.87 0 72.87-31.64 71.11-31.64 71.11 0 69.36 0 69.36-31.64ZM105.95-18.36L105.95-20.12 116.55-20.12Q118.96-20.12 120.63-21.68 122.31-23.24 122.31-26.12L122.31-26.12Q122.31-28.25 120.55-29.94 118.79-31.64 116.55-31.64L116.55-31.64 101.46-31.64 101.46 0 99.7 0 99.7-33.4 116.55-33.4Q119.52-33.4 121.79-31.19 124.06-28.98 124.06-26.12L124.06-26.12Q124.06-22.61 121.87-20.48 119.67-18.36 116.55-18.36L116.55-18.36 105.95-18.36ZM105.95-14.84L105.95-16.6 116.55-16.6Q120.35-16.6 123.09-19.27 125.82-21.95 125.82-26.12L125.82-26.12Q125.82-29.71 123.03-32.43 120.23-35.16 116.55-35.16L116.55-35.16 97.94-35.16 97.94 0 96.18 0 96.18-36.91 116.55-36.91Q119.45-36.91 122-35.42 124.55-33.94 126.07-31.43 127.58-28.93 127.58-26.12L127.58-26.12Q127.58-21.31 124.32-18.08 121.06-14.84 116.55-14.84L116.55-14.84 105.95-14.84ZM105.95-11.33L105.95-13.09 116.55-13.09Q119.96-13.09 122.89-14.77 125.82-16.46 127.58-19.47 129.34-22.49 129.34-26.12L129.34-26.12Q129.34-29.42 127.59-32.31 125.85-35.21 122.89-36.94 119.94-38.67 116.55-38.67L116.55-38.67 94.43-38.67 94.43 0 92.67 0 92.67-40.43 116.55-40.43Q120.38-40.43 123.75-38.46 127.12-36.5 129.11-33.19 131.1-29.88 131.1-26.12L131.1-26.12Q131.1-21.78 129.23-18.48 127.36-15.19 124.16-13.33L124.16-13.33 128.7 0 126.85 0 122.5-12.5Q121.53-12.11 121.01-11.96L121.01-11.96 125.09 0 123.23 0 119.26-11.55Q119.04-11.5 117.69-11.38L117.69-11.38 121.48 0 119.62 0 115.89-11.33 114.3-11.33 117.86 0 116.01 0 112.42-11.33 105.95-11.33ZM104.97-28.13L104.97 0 103.22 0 103.22-29.88 116.55-29.88Q118.18-29.88 119.37-28.77 120.55-27.66 120.55-26.12L120.55-26.12Q120.55-21.88 116.55-21.88L116.55-21.88 105.95-21.88 105.95-23.63 116.55-23.63Q117.6-23.63 118.19-24.18 118.79-24.73 118.79-26.12L118.79-26.12Q118.79-26.98 118.14-27.55 117.5-28.13 116.55-28.13L116.55-28.13 104.97-28.13ZM143.62-27.05Q140.79-24.22 140.79-20.21 140.79-16.21 143.62-13.38 146.45-10.55 150.45-10.55 154.46-10.55 157.29-13.38 160.12-16.21 160.12-20.21 160.12-24.22 157.29-27.05 154.46-29.88 150.45-29.88 146.45-29.88 143.62-27.05ZM139.93-15.78Q139.03-17.9 139.03-20.21 139.03-22.53 139.93-24.65 140.83-26.76 142.37-28.3 143.91-29.83 146.02-30.74 148.13-31.64 150.45-31.64 152.77-31.64 154.89-30.74 157-29.83 158.53-28.3 160.07-26.76 160.98-24.65 161.88-22.53 161.88-20.21 161.88-17.9 160.98-15.78 160.07-13.67 158.53-12.13 157-10.6 154.89-9.69 152.77-8.79 150.45-8.79 148.13-8.79 146.02-9.69 143.91-10.6 142.37-12.13 140.83-13.67 139.93-15.78ZM139.04-26.83Q137.27-23.8 137.27-20.21 137.27-16.63 139.04-13.6 140.81-10.57 143.84-8.8 146.87-7.03 150.45-7.03 154.04-7.03 157.07-8.8 160.1-10.57 161.87-13.6 163.64-16.63 163.64-20.21 163.64-23.8 161.87-26.83 160.1-29.86 157.07-31.63 154.04-33.4 150.45-33.4 146.87-33.4 143.84-31.63 140.81-29.86 139.04-26.83ZM137.51-12.72Q135.51-16.16 135.51-20.21 135.51-24.27 137.51-27.71 139.52-31.15 142.96-33.15 146.4-35.16 150.45-35.16 154.51-35.16 157.95-33.15 161.39-31.15 163.39-27.71 165.4-24.27 165.4-20.21 165.4-16.16 163.39-12.72 161.39-9.28 157.95-7.28 154.51-5.27 150.45-5.27 146.4-5.27 142.96-7.28 139.52-9.28 137.51-12.72ZM135.07-26.71Q133.75-23.61 133.75-20.21 133.75-16.82 135.07-13.72 136.39-10.62 138.63-8.39 140.86-6.15 143.96-4.83 147.06-3.52 150.45-3.52 153.85-3.52 156.95-4.83 160.05-6.15 162.28-8.39 164.52-10.62 165.83-13.72 167.15-16.82 167.15-20.21 167.15-23.61 165.83-26.71 164.52-29.81 162.28-32.04 160.05-34.28 156.95-35.6 153.85-36.91 150.45-36.91 147.06-36.91 143.96-35.6 140.86-34.28 138.63-32.04 136.39-29.81 135.07-26.71ZM134.47-10.96Q132-15.21 132-20.21 132-25.22 134.47-29.47 136.95-33.72 141.2-36.19 145.45-38.67 150.45-38.67 155.46-38.67 159.71-36.19 163.95-33.72 166.43-29.47 168.91-25.22 168.91-20.21 168.91-15.21 166.43-10.96 163.95-6.71 159.71-4.24 155.46-1.76 150.45-1.76 145.45-1.76 141.2-4.24 136.95-6.71 134.47-10.96ZM131.84-28.06Q130.24-24.32 130.24-20.21 130.24-16.11 131.84-12.37 133.44-8.62 136.15-5.91 138.86-3.2 142.6-1.6 146.35 0 150.45 0 154.56 0 158.3-1.6 162.05-3.2 164.76-5.91 167.47-8.62 169.07-12.37 170.67-16.11 170.67-20.21 170.67-24.32 169.07-28.06 167.47-31.81 164.76-34.52 162.05-37.23 158.3-38.83 154.56-40.43 150.45-40.43 146.35-40.43 142.6-38.83 138.86-37.23 136.15-34.52 133.44-31.81 131.84-28.06ZM130.23-11.68Q128.48-15.75 128.48-20.21 128.48-24.68 130.23-28.75 131.97-32.81 134.91-35.75 137.86-38.7 141.92-40.44 145.99-42.19 150.45-42.19 154.92-42.19 158.99-40.44 163.05-38.7 165.99-35.75 168.94-32.81 170.68-28.75 172.43-24.68 172.43-20.21 172.43-15.75 170.68-11.68 168.94-7.62 165.99-4.68 163.05-1.73 158.99 0.01 154.92 1.76 150.45 1.76 145.99 1.76 141.92 0.01 137.86-1.73 134.91-4.68 131.97-7.62 130.23-11.68ZM193.78-14.06L193.78 0 192.03 0 192.03-40.43 211.48-40.43 211.48-38.67 193.78-38.67 193.78-36.91 211.48-36.91 211.48-35.16 193.78-35.16 193.78-33.4 211.48-33.4 211.48-31.64 193.78-31.64 193.78-22.85 210.65-22.85 210.65-21.09 193.78-21.09 193.78-19.34 210.65-19.34 210.65-17.58 193.78-17.58 193.78-15.82 210.65-15.82 210.65-14.06 193.78-14.06ZM190.27-40.43L190.27 0 188.51 0 188.51-40.43 190.27-40.43ZM186.75-40.43L186.75 0 184.99 0 184.99-40.43 186.75-40.43ZM183.24-40.43L183.24 0 181.48 0 181.48-40.43 183.24-40.43ZM226.18 0L226.18-40.43 227.94-40.43 227.94 0 226.18 0ZM222.66 0L222.66-40.43 224.42-40.43 224.42 0 222.66 0ZM219.15 0L219.15-40.43 220.91-40.43 220.91 0 219.15 0ZM215.63 0L215.63-40.43 217.39-40.43 217.39 0 215.63 0ZM258.16-38.67L231.79-38.67 231.79-40.43 258.16-40.43 258.16-38.67ZM258.16-35.16L231.79-35.16 231.79-36.91 258.16-36.91 258.16-35.16ZM238.82-31.64L231.79-31.64 231.79-33.4 258.16-33.4 258.16-31.64 251.13-31.64 251.13 0 249.37 0 249.37-31.64 247.61-31.64 247.61 0 245.85 0 245.85-31.64 244.1-31.64 244.1 0 242.34 0 242.34-31.64 240.58-31.64 240.58 0 238.82 0 238.82-31.64ZM290.85-40.43L290.85-19.46 289.09-22.36 289.09-40.43 290.85-40.43ZM294.36-40.43L294.36-13.7 292.6-16.65 292.6-40.43 294.36-40.43ZM297.88-40.43L297.88-7.86 296.12-10.84 296.12-40.43 297.88-40.43ZM272.68 0L272.68-20.97 274.44-18.07 274.44 0 272.68 0ZM269.17 0L269.17-26.73 270.92-23.78 270.92 0 269.17 0ZM265.65 0L265.65-32.57 267.41-29.59 267.41 0 265.65 0ZM291.12 0L266.26-40.43 268.31-40.43 293.17 0 291.12 0ZM295.22 0L270.41-40.43 272.49-40.43 297.32 0 295.22 0ZM299.32 0L274.54-40.43 276.59-40.43 299.64-2.86 299.64-40.43 301.39-40.43 301.39 0Q301.39 0 299.32 0L299.32 0ZM286.99 0L263.89-37.57 263.89 0 262.14 0 262.14-40.43Q262.14-40.43 264.24-40.43L264.24-40.43 289.02 0 286.99 0ZM314.82-40.43L314.82 0 313.06 0 313.06-40.43 314.82-40.43ZM311.3-40.43L311.3 0 309.55 0 309.55-40.43 311.3-40.43ZM307.79-40.43L307.79 0 306.03 0 306.03-40.43 307.79-40.43ZM318.33-15.82L318.33-8.79 337.04-8.79 337.04-7.03 318.33-7.03 318.33-5.27 337.04-5.27 337.04-3.52 318.33-3.52 318.33-1.76 337.04-1.76 337.04 0 316.58 0 316.58-40.43 337.04-40.43 337.04-38.67 318.33-38.67 318.33-36.91 337.04-36.91 337.04-35.16 318.33-35.16 318.33-33.4 337.04-33.4 337.04-31.64 318.33-31.64 318.33-24.61 327.93-24.61 327.93-22.85 318.33-22.85 318.33-21.09 327.93-21.09 327.93-19.34 318.33-19.34 318.33-17.58 327.93-17.58 327.93-15.82 318.33-15.82ZM357.69-24.61L357.69-24.61 354.73-24.61Q352.85-24.61 352.02-25.57 351.19-26.54 351.19-28.13L351.19-28.13Q351.19-31.64 356.44-31.64L356.44-31.64Q361.37-31.64 363.86-30.18L363.86-30.18 362.45-29.1Q360.74-29.88 356.44-29.88L356.44-29.88Q354.34-29.88 353.62-29.42 352.9-28.96 352.9-28.13 352.9-27.29 353.29-26.83 353.68-26.37 354.73-26.37L354.73-26.37 357.76-26.37Q361.06-26.37 363.71-25.24 366.35-24.12 368.06-22.18 369.77-20.24 370.68-17.71 371.58-15.19 371.58-12.3L371.58-12.3Q371.58-9.96 370.92-7.86 370.26-5.76 368.93-4 367.6-2.25 365.73-0.96 363.86 0.32 361.29 1.04 358.71 1.76 355.71 1.76L355.71 1.76Q351 1.76 346.88 0.33 342.77-1.1 340.04-3.66L340.04-3.66 341.45-4.71Q343.94-2.47 347.69-1.23 351.44 0 355.71 0L355.71 0Q359.05 0 361.75-0.96 364.45-1.93 366.2-3.61 367.94-5.3 368.88-7.52 369.82-9.74 369.82-12.3L369.82-12.3Q369.82-15.7 368.45-18.44 367.09-21.19 364.29-22.9 361.5-24.61 357.69-24.61ZM354.73-22.85L354.73-22.85 357.52-22.85Q362.47-22.85 365.27-19.82 368.06-16.8 368.06-12.3L368.06-12.3Q368.06-7.74 364.82-4.75 361.57-1.76 355.71-1.76L355.71-1.76Q351.8-1.76 348.41-2.83 345.02-3.91 342.77-5.86L342.77-5.86 344.14-6.96Q346.14-5.32 349.18-4.42 352.22-3.52 355.71-3.52L355.71-3.52Q360.86-3.52 363.58-5.98 366.31-8.45 366.31-12.3L366.31-12.3Q366.31-16.11 364.02-18.6 361.74-21.09 357.49-21.09L357.49-21.09 354.73-21.09Q351.17-21.09 349.39-23.05 347.6-25 347.6-28.13 347.6-31.25 349.81-33.2 352.02-35.16 356.44-35.16L356.44-35.16Q359.54-35.16 362.2-34.44 364.87-33.72 366.6-32.37L366.6-32.37 365.21-31.3Q362.16-33.4 356.44-33.4L356.44-33.4Q352.76-33.4 351.06-31.95 349.36-30.49 349.36-28.13L349.36-28.13Q349.36-25.73 350.62-24.29 351.88-22.85 354.73-22.85ZM354.73-19.34L354.73-19.34 357.42-19.34Q360.98-19.34 362.77-17.36 364.55-15.38 364.55-12.3L364.55-12.3Q364.55-9.18 362.34-7.23 360.13-5.27 355.71-5.27L355.71-5.27Q352.61-5.27 349.94-5.99 347.26-6.71 345.53-8.06L345.53-8.06 346.92-9.13Q349.97-7.03 355.71-7.03L355.71-7.03Q359.4-7.03 361.09-8.48 362.79-9.94 362.79-12.3 362.79-14.67 361.52-16.13 360.25-17.58 357.39-17.58L357.39-17.58 354.73-17.58Q349.73-17.58 346.91-20.57 344.09-23.56 344.09-28.13 344.09-32.69 347.34-35.68 350.58-38.67 356.44-38.67L356.44-38.67Q360.35-38.67 363.73-37.6 367.11-36.52 369.36-34.57L369.36-34.57 367.99-33.47Q365.99-35.11 362.96-36.01 359.93-36.91 356.44-36.91L356.44-36.91Q351.29-36.91 348.57-34.45 345.85-31.98 345.85-28.13L345.85-28.13Q345.85-24.29 348.14-21.81 350.44-19.34 354.73-19.34ZM354.73-15.82L354.73-15.82 357.42-15.82Q359.3-15.82 360.13-14.84 360.96-13.87 360.96-12.3L360.96-12.3Q360.96-8.79 355.71-8.79L355.71-8.79Q350.75-8.79 348.26-10.25L348.26-10.25 349.68-11.33Q351.39-10.55 355.71-10.55L355.71-10.55Q357.81-10.55 358.53-11.01 359.25-11.47 359.25-12.3L359.25-12.3Q359.25-13.11 358.85-13.59 358.44-14.06 357.37-14.06L357.37-14.06 354.73-14.06Q351.36-14.06 348.64-15.16 345.92-16.26 344.17-18.19 342.43-20.12 341.5-22.66 340.57-25.2 340.57-28.13L340.57-28.13Q340.57-30.47 341.23-32.57 341.89-34.67 343.22-36.43 344.55-38.18 346.42-39.47 348.29-40.75 350.86-41.47 353.44-42.19 356.44-42.19L356.44-42.19Q361.15-42.19 365.26-40.76 369.36-39.33 372.09-36.77L372.09-36.77 370.68-35.72Q368.19-37.96 364.45-39.2 360.71-40.43 356.44-40.43L356.44-40.43Q353.1-40.43 350.4-39.47 347.7-38.5 345.96-36.82 344.21-35.13 343.27-32.91 342.33-30.69 342.33-28.13L342.33-28.13Q342.33-24.68 343.72-21.92 345.11-19.17 347.97-17.49 350.83-15.82 354.73-15.82ZM391.79-24.61L391.79-24.61 388.84-24.61Q386.96-24.61 386.13-25.57 385.3-26.54 385.3-28.13L385.3-28.13Q385.3-31.64 390.55-31.64L390.55-31.64Q395.48-31.64 397.97-30.18L397.97-30.18 396.55-29.1Q394.84-29.88 390.55-29.88L390.55-29.88Q388.45-29.88 387.73-29.42 387.01-28.96 387.01-28.13 387.01-27.29 387.4-26.83 387.79-26.37 388.84-26.37L388.84-26.37 391.86-26.37Q395.16-26.37 397.81-25.24 400.46-24.12 402.17-22.18 403.88-20.24 404.78-17.71 405.68-15.19 405.68-12.3L405.68-12.3Q405.68-9.96 405.02-7.86 404.36-5.76 403.03-4 401.7-2.25 399.84-0.96 397.97 0.32 395.39 1.04 392.82 1.76 389.81 1.76L389.81 1.76Q385.1 1.76 380.99 0.33 376.87-1.1 374.14-3.66L374.14-3.66 375.56-4.71Q378.05-2.47 381.79-1.23 385.54 0 389.81 0L389.81 0Q393.16 0 395.86-0.96 398.55-1.93 400.3-3.61 402.05-5.3 402.99-7.52 403.93-9.74 403.93-12.3L403.93-12.3Q403.93-15.7 402.56-18.44 401.19-21.19 398.4-22.9 395.6-24.61 391.79-24.61ZM388.84-22.85L388.84-22.85 391.62-22.85Q396.58-22.85 399.37-19.82 402.17-16.8 402.17-12.3L402.17-12.3Q402.17-7.74 398.92-4.75 395.67-1.76 389.81-1.76L389.81-1.76Q385.91-1.76 382.51-2.83 379.12-3.91 376.87-5.86L376.87-5.86 378.24-6.96Q380.24-5.32 383.28-4.42 386.32-3.52 389.81-3.52L389.81-3.52Q394.97-3.52 397.69-5.98 400.41-8.45 400.41-12.3L400.41-12.3Q400.41-16.11 398.13-18.6 395.84-21.09 391.6-21.09L391.6-21.09 388.84-21.09Q385.27-21.09 383.49-23.05 381.71-25 381.71-28.13 381.71-31.25 383.92-33.2 386.13-35.16 390.55-35.16L390.55-35.16Q393.65-35.16 396.31-34.44 398.97-33.72 400.7-32.37L400.7-32.37 399.31-31.3Q396.26-33.4 390.55-33.4L390.55-33.4Q386.86-33.4 385.16-31.95 383.47-30.49 383.47-28.13L383.47-28.13Q383.47-25.73 384.72-24.29 385.98-22.85 388.84-22.85ZM388.84-19.34L388.84-19.34 391.52-19.34Q395.09-19.34 396.87-17.36 398.65-15.38 398.65-12.3L398.65-12.3Q398.65-9.18 396.44-7.23 394.23-5.27 389.81-5.27L389.81-5.27Q386.71-5.27 384.04-5.99 381.37-6.71 379.63-8.06L379.63-8.06 381.02-9.13Q384.08-7.03 389.81-7.03L389.81-7.03Q393.5-7.03 395.2-8.48 396.89-9.94 396.89-12.3 396.89-14.67 395.62-16.13 394.35-17.58 391.5-17.58L391.5-17.58 388.84-17.58Q383.83-17.58 381.01-20.57 378.19-23.56 378.19-28.13 378.19-32.69 381.44-35.68 384.69-38.67 390.55-38.67L390.55-38.67Q394.45-38.67 397.83-37.6 401.22-36.52 403.46-34.57L403.46-34.57 402.09-33.47Q400.09-35.11 397.06-36.01 394.04-36.91 390.55-36.91L390.55-36.91Q385.39-36.91 382.67-34.45 379.95-31.98 379.95-28.13L379.95-28.13Q379.95-24.29 382.25-21.81 384.54-19.34 388.84-19.34ZM388.84-15.82L388.84-15.82 391.52-15.82Q393.4-15.82 394.23-14.84 395.06-13.87 395.06-12.3L395.06-12.3Q395.06-8.79 389.81-8.79L389.81-8.79Q384.86-8.79 382.37-10.25L382.37-10.25 383.78-11.33Q385.49-10.55 389.81-10.55L389.81-10.55Q391.91-10.55 392.63-11.01 393.35-11.47 393.35-12.3L393.35-12.3Q393.35-13.11 392.95-13.59 392.55-14.06 391.47-14.06L391.47-14.06 388.84-14.06Q385.47-14.06 382.75-15.16 380.02-16.26 378.28-18.19 376.53-20.12 375.6-22.66 374.68-25.2 374.68-28.13L374.68-28.13Q374.68-30.47 375.34-32.57 376-34.67 377.33-36.43 378.66-38.18 380.52-39.47 382.39-40.75 384.97-41.47 387.54-42.19 390.55-42.19L390.55-42.19Q395.26-42.19 399.36-40.76 403.46-39.33 406.2-36.77L406.2-36.77 404.78-35.72Q402.29-37.96 398.55-39.2 394.82-40.43 390.55-40.43L390.55-40.43Q387.2-40.43 384.5-39.47 381.81-38.5 380.06-36.82 378.31-35.13 377.37-32.91 376.43-30.69 376.43-28.13L376.43-28.13Q376.43-24.68 377.83-21.92 379.22-19.17 382.07-17.49 384.93-15.82 388.84-15.82Z" opacity="1" transform="matrix(1,0,0,1,0,0)" fill="#454545" class="wordmark-text-0" data-fill-palette-color="primary" id="text-0"/></svg></g></svg></g></svg></g></svg></g><g transform="matrix(1,0,0,1,405.67780267956,0)"><svg viewBox="0 0 57.28370820562525 59.46425432128612" height="59.46425432128612" width="57.28370820562525"><g><svg xmlns="http://www.w3.org/2000/svg" xmlns:xlink="http://www.w3.org/1999/xlink" version="1.1" x="0" y="0" viewBox="3.0265978724642992 1.239 93.94580425507141 97.52191978543638" enable-background="new 0 0 100 100" xml:space="preserve" height="59.46425432128612" width="57.28370820562525" class="icon-icon-0" data-fill-palette-color="accent" id="icon-0"><path fill-rule="evenodd" clip-rule="evenodd" d="M50 1.239c6.746 0 12.743 5.246 12.743 11.992 0 7.496-5.997 12.742-12.743 12.742s-11.992-5.246-11.992-12.742C38.008 6.485 43.254 1.239 50 1.239L50 1.239z" fill="#454545" data-fill-palette-color="accent"/><path fill-rule="evenodd" clip-rule="evenodd" d="M38.756 28.971H50l0 0 0 0h11.993c2.999 0 4.497 0 7.495 4.498 2.998 3.749 6.747 12.742 8.245 19.488 1.499 6.746 2.249 8.994-3.747 12.742S58.245 71.696 50 71.696l0 0c-8.245 0-17.988-2.249-23.984-5.997s-4.498-5.996-2.998-12.742c1.499-6.747 5.247-15.74 8.245-19.488C33.51 28.971 35.009 28.971 38.756 28.971L38.756 28.971zM50.75 61.202h9.744c0 2.998-4.497 5.247-9.744 5.247-5.997 0-10.494-2.249-10.494-5.247H50.75z" fill="#454545" data-fill-palette-color="accent"/><path fill-rule="evenodd" clip-rule="evenodd" d="M50 76.756L50 76.756" fill="#454545" data-fill-palette-color="accent"/><path fill-rule="evenodd" clip-rule="evenodd" d="M50 76.756c-9.744 0.75-14.99-5.06-19.488-5.81-5.246-0.75-5.996 0-10.493 2.998-4.498 2.998-13.492 10.494-15.74 15.74-2.999 5.247-0.75 9.744 8.244 8.995 8.994-1.5 20.237-3.748 28.481-5.997 3.748-0.749 3.748-1.499 8.995-1.499 5.248 0 5.248 0.75 8.996 1.499 8.244 2.249 19.486 4.497 28.481 5.997 8.994 0.749 11.243-3.748 8.244-8.995-2.249-5.246-11.242-12.742-15.739-15.74s-5.247-3.748-10.494-2.998C64.991 71.696 59.743 77.506 50 76.756" fill="#454545" data-fill-palette-color="accent"/></svg></g></svg></g></svg></g><defs/></svg><rect width="395.52" height="50.8018513767722" fill="none" stroke="none" visibility="hidden"/></g></svg></g></svg>